<?xml version="1.0" encoding="UTF-8" standalone="no"?>
<!-- Created with Inkscape (http://www.inkscape.org/) -->

<svg
   width="33.026901mm"
   height="19.99992mm"
   viewBox="0 0 33.026901 19.99992"
   version="1.1"
   id="svg1"
   xml:space="preserve"
   xmlns="http://www.w3.org/2000/svg"
   xmlns:svg="http://www.w3.org/2000/svg"><defs
     id="defs1" /><g
     id="layer1"
     transform="translate(-25.128647,-21.228757)"><path
       style="fill:#1a488f;stroke-width:0.0937133"
       d="m 25.172047,41.199354 c -0.0401,-0.02333 -0.0434,-0.09373 -0.0434,-0.913625 0,-0.700751 0.007,-0.894025 0.0324,-0.915225 0.0178,-0.01478 0.14334,-0.0301 0.27895,-0.03403 l 0.24656,-0.0072 0.0148,-0.991798 c 0.0117,-0.780914 0.0235,-1.03293 0.0556,-1.185243 0.10126,-0.48044 0.24359,-0.765163 0.52425,-1.048737 0.31263,-0.315882 0.69476,-0.494857 1.21428,-0.568731 0.31711,-0.04509 0.50749,-0.04518 0.84564,-4.13e-4 0.77484,0.102595 1.30033,0.463429 1.5844,1.087936 0.0742,0.163091 0.0976,0.236359 0.16782,0.525025 0.0133,0.05455 0.0314,0.567805 0.0402,1.140569 l 0.0161,1.041389 0.27275,0.0124 0.27274,0.0124 0.007,0.902099 c 0.005,0.645186 -0.002,0.911757 -0.0216,0.93601 -0.0388,0.04682 -0.98358,0.04946 -1.04589,0.0029 -0.0347,-0.02595 -0.0426,-0.08752 -0.0481,-0.378123 l -0.007,-0.34713 h -1.66126 -1.66126 l -0.007,0.345468 c -0.004,0.203017 -0.0181,0.358933 -0.034,0.378123 -0.0337,0.04067 -0.97499,0.04596 -1.04382,0.0059 z m 3.84353,-2.768955 c 0.007,-0.982466 -0.007,-1.127131 -0.1308,-1.375919 -0.17989,-0.360455 -0.49111,-0.527706 -0.97908,-0.526175 -0.37035,0.0012 -0.60749,0.09145 -0.79291,0.301884 -0.12315,0.139761 -0.165,0.215261 -0.23077,0.416353 -0.0437,0.133623 -0.0498,0.240909 -0.0602,1.053786 -0.008,0.609881 -0.003,0.927339 0.015,0.973467 l 0.0265,0.06845 1.0729,-0.0065 1.07289,-0.0065 z m 4.48138,2.035876 c -0.40169,-0.06374 -0.82911,-0.220255 -1.12297,-0.411206 -0.478,-0.310603 -0.80026,-0.785063 -0.9645,-1.420009 -0.0646,-0.249893 -0.064,-1.092191 0.001,-1.326531 0.12113,-0.436651 0.24122,-0.692723 0.44297,-0.944574 0.34637,-0.432363 0.79924,-0.697406 1.44189,-0.843869 0.31691,-0.07222 1.01567,-0.07325 1.34218,-0.002 0.90965,0.198594 1.49375,0.675548 1.80956,1.477598 0.11161,0.28347 0.14502,0.511032 0.14422,0.982273 -6.6e-4,0.388097 -0.009,0.490193 -0.0542,0.663247 -0.0538,0.205944 -0.0599,0.224349 -0.14112,0.427732 -0.12638,0.316252 -0.40672,0.675735 -0.70739,0.907102 -0.18069,0.139034 -0.52552,0.311261 -0.75354,0.376356 -0.0955,0.02725 -0.2182,0.06293 -0.27274,0.07928 -0.0999,0.02994 -1.02215,0.05729 -1.16537,0.03457 z m 0.88849,-1.02735 c 0.54363,-0.138429 0.82531,-0.408699 1.0316,-0.989827 0.0539,-0.151733 0.0634,-0.66159 0.0163,-0.873255 -0.065,-0.292349 -0.18849,-0.522425 -0.38187,-0.711731 -0.27858,-0.272709 -0.6116,-0.397427 -1.06325,-0.398187 -0.48059,-8.06e-4 -0.80171,0.118193 -1.08468,0.40197 -0.30059,0.301444 -0.41075,0.600153 -0.41075,1.113757 0,0.491698 0.11239,0.800267 0.39672,1.089132 0.3543,0.359962 0.95121,0.506855 1.49596,0.368141 z m 3.60016,0.951325 c -0.11737,-0.0056 -0.20531,-0.02155 -0.21658,-0.03928 -0.0302,-0.04745 -0.0243,-4.698325 0.006,-4.754925 0.0241,-0.04501 0.0568,-0.04796 0.53163,-0.04796 0.32263,0 0.51171,0.0093 0.52185,0.02572 0.009,0.01414 0.0146,0.418752 0.013,0.899129 -0.002,0.675638 0.004,0.88324 0.029,0.916812 0.0296,0.04035 0.10678,0.04294 1.09802,0.03688 l 1.06618,-0.0065 0.007,-0.902853 c 0.004,-0.615984 0.0153,-0.913389 0.034,-0.93601 0.0213,-0.02564 0.13886,-0.03316 0.51836,-0.03316 0.26996,0 0.50848,0.0068 0.53005,0.01505 0.0354,0.01358 0.0392,0.248433 0.0392,2.403649 0,1.569599 -0.009,2.393865 -0.0248,2.40396 -0.0402,0.02482 -1.04242,0.02118 -1.06748,-0.0039 -0.0129,-0.01292 -0.0257,-0.442493 -0.0293,-0.988908 l -0.006,-0.96606 -1.07137,-0.0065 c -1.05866,-0.0064 -1.07169,-0.0059 -1.09862,0.04446 -0.0187,0.0349 -0.0257,0.343389 -0.0224,0.98038 0.003,0.511198 5.6e-4,0.933775 -0.005,0.939057 -0.0158,0.01577 -0.63892,0.03106 -0.85189,0.0209 z m 7.07201,-0.0019 -0.21696,-0.0072 v -1.878718 c 0,-1.464151 -0.007,-1.887934 -0.031,-1.920504 -0.0278,-0.03749 -0.11523,-0.04245 -0.84923,-0.04813 l -0.81823,-0.0063 -0.007,-0.469293 c -0.005,-0.358863 6.7e-4,-0.474006 0.0248,-0.489321 0.0174,-0.01102 1.01344,-0.02003 2.21351,-0.02003 1.20008,0 2.19616,0.009 2.21352,0.02003 0.0241,0.01532 0.03,0.130458 0.0248,0.489321 l -0.007,0.469293 -0.80372,0.0066 c -0.54262,0.0044 -0.81447,0.01547 -0.83683,0.03403 -0.0271,0.02248 -0.0331,0.369519 -0.0331,1.907401 0,1.132854 -0.009,1.885585 -0.0231,1.894177 -0.0278,0.01719 -0.54946,0.02865 -0.85095,0.0187 z m 3.82462,-0.0052 -0.13637,-0.0124 -0.006,-2.377626 c -0.005,-1.736204 0.001,-2.386713 0.0216,-2.411311 0.023,-0.02777 0.32082,-0.03368 1.69655,-0.03368 0.91773,0 1.68625,0.0068 1.70782,0.01505 0.0338,0.01297 0.0392,0.07788 0.0392,0.468452 0,0.39057 -0.005,0.455487 -0.0392,0.468452 -0.0216,0.0083 -0.55026,0.01505 -1.17487,0.01505 h -1.13565 l -0.0149,0.05579 c -0.0299,0.111464 -0.0172,0.850056 0.0154,0.89401 0.0282,0.03808 0.13514,0.04243 1.18396,0.04813 l 1.15296,0.0063 0.007,0.432075 c 0.005,0.329073 -7.5e-4,0.436856 -0.0248,0.452128 -0.0174,0.01103 -0.54634,0.02022 -1.17547,0.02043 l -1.14388,3.82e-4 -0.0149,0.05579 c -0.03,0.111739 -0.0172,0.874842 0.0154,0.918805 0.0282,0.03808 0.13514,0.04243 1.18396,0.04813 l 1.15296,0.0063 v 0.458707 0.458707 l -0.23555,0.01784 c -0.25584,0.01938 -2.85208,0.01478 -3.07458,-0.0054 z m 4.4631,-0.02641 c 0,-0.01452 0.10425,-0.167943 0.23167,-0.340931 0.20046,-0.272159 0.73232,-1.001453 0.95268,-1.306325 0.0394,-0.05455 0.16662,-0.227623 0.28266,-0.38461 0.28215,-0.381727 0.28232,-0.382072 0.22679,-0.470578 -0.0439,-0.07006 -0.44582,-0.632705 -1.2286,-1.720118 -0.21464,-0.298165 -0.38414,-0.552004 -0.37667,-0.564086 0.007,-0.01208 0.28634,-0.02197 0.61972,-0.02197 h 0.60614 l 0.0985,0.130174 c 0.11866,0.156752 0.41669,0.574823 0.82191,1.152966 0.0836,0.119325 0.16453,0.225395 0.17976,0.23571 0.0395,0.02677 0.0996,-0.0503 0.58687,-0.752959 0.23795,-0.343135 0.46241,-0.656046 0.49881,-0.695357 l 0.0662,-0.07147 0.5661,0.0067 c 0.49982,0.0059 0.56577,0.01129 0.5633,0.04615 -0.002,0.02171 -0.0808,0.144449 -0.17624,0.272745 -0.0954,0.128296 -0.36654,0.501052 -0.60255,0.828345 -0.236,0.327293 -0.50816,0.704047 -0.6048,0.837231 -0.22857,0.315012 -0.24071,0.338144 -0.20878,0.397797 0.0241,0.04502 0.22899,0.331691 0.98697,1.380842 0.64914,0.898503 0.71977,0.999829 0.71977,1.032584 0,0.02737 -0.11426,0.0336 -0.61603,0.0336 -0.56881,0 -0.61923,-0.0035 -0.65772,-0.04606 -0.0229,-0.02533 -0.17993,-0.245699 -0.3489,-0.4897 -0.68286,-0.986082 -0.74918,-1.075912 -0.79429,-1.075912 -0.0189,0 -0.16538,0.192471 -0.32552,0.427714 -0.16013,0.235242 -0.34857,0.511396 -0.41874,0.613675 -0.0702,0.102279 -0.18637,0.272435 -0.25821,0.378124 l -0.13063,0.19216 h -0.63009 c -0.42915,0 -0.63009,-0.0084 -0.63009,-0.02641 z m -16.10372,-8.048465 c -0.40351,-0.12379 -0.65844,-0.476109 -0.65701,-0.908042 7.5e-4,-0.221505 0.063,-0.409363 0.21146,-0.63754 0.0684,-0.105179 0.38525,-0.622183 1.24597,-2.033188 0.20381,-0.334112 0.56854,-0.931051 0.81051,-1.326531 0.83819,-1.36993 1.12395,-1.837444 1.46249,-2.392715 0.18707,-0.306837 0.35442,-0.572868 0.37188,-0.591179 0.0422,-0.04427 0.0819,0.0099 0.44577,0.609571 l 0.28955,0.477099 -0.2581,0.427918 c -0.14196,0.235354 -0.35354,0.584126 -0.47018,0.775047 -0.87139,1.426328 -1.1762,1.926241 -1.24333,2.039173 -0.0425,0.07148 -0.2781,0.459215 -0.52357,0.861638 -0.79437,1.302284 -0.83052,1.36338 -0.83058,1.403472 -3e-5,0.02175 0.0234,0.0608 0.0521,0.08678 0.0508,0.04597 0.1446,0.04723 3.51708,0.04723 3.74603,0 3.54689,0.0073 3.54689,-0.129637 0,-0.03387 -0.0732,-0.183087 -0.16269,-0.331599 -0.0895,-0.148511 -0.15577,-0.281222 -0.14731,-0.294913 0.0241,-0.03901 1.33157,-0.03324 1.38032,0.0061 0.0418,0.03373 0.24949,0.376253 0.35121,0.579244 0.0935,0.186516 0.12874,0.422753 0.0914,0.612433 -0.0353,0.179526 -0.075,0.264214 -0.19108,0.407487 -0.11354,0.140178 -0.28027,0.251677 -0.46,0.307614 -0.1409,0.04386 -0.33137,0.04575 -4.42836,0.0441 -3.76438,-0.0015 -4.29601,-0.0063 -4.40448,-0.03957 z m -1.48575,-2.454136 c -0.15395,-0.04726 -0.22141,-0.0892 -0.37029,-0.230175 -0.13454,-0.127391 -0.19025,-0.222961 -0.24901,-0.427171 -0.0939,-0.326385 -0.0317,-0.516158 0.3932,-1.19874 0.0849,-0.136372 0.31926,-0.521314 0.52084,-0.855426 0.50529,-0.837499 0.81455,-1.345876 2.16445,-3.558078 0.22468,-0.368206 0.58369,-0.959566 0.79781,-1.314134 0.51444,-0.851919 0.63108,-0.970711 1.01096,-1.029651 0.20307,-0.03151 0.45587,6.56e-4 0.6056,0.07704 0.22046,0.112472 0.29733,0.217273 0.94028,1.28209 0.10119,0.167577 0.21293,0.35168 0.24832,0.409117 0.0354,0.05744 0.27055,0.444743 0.52258,0.860679 0.25204,0.415935 0.52315,0.862245 0.60248,0.991799 0.0793,0.129553 0.36518,0.600309 0.63525,1.046124 0.27007,0.445815 0.51834,0.853072 0.55171,0.905017 0.27208,0.423552 0.85931,1.425832 0.84703,1.445702 -0.01,0.01564 -0.26668,0.02486 -0.69273,0.02486 -0.58189,0 -0.68187,-0.0054 -0.7093,-0.03848 -0.0344,-0.04144 -0.13652,-0.208398 -1.11399,-1.821147 -0.35128,-0.579583 -0.90519,-1.491696 -1.23092,-2.026919 -0.32572,-0.535222 -0.63128,-1.040313 -0.67901,-1.122423 -0.15226,-0.261933 -0.1947,-0.301705 -0.33654,-0.315334 -0.17084,-0.01642 -0.21425,0.0253 -0.47819,0.459533 -0.11784,0.193876 -0.40859,0.673191 -0.6461,1.065146 -0.23752,0.391955 -0.47853,0.785171 -0.53559,0.873813 -0.0571,0.08864 -0.13052,0.208078 -0.16324,0.265415 -0.0583,0.102235 -0.83693,1.388261 -1.01771,1.68099 -0.42259,0.684284 -0.74023,1.224868 -0.74023,1.259777 0,0.02308 0.0223,0.06428 0.0496,0.09155 0.0452,0.04518 0.0827,0.04959 0.42151,0.04959 0.25317,0 0.37193,0.0087 0.37193,0.02718 0,0.03046 -0.60629,1.051783 -0.66462,1.119589 -0.0331,0.03848 -0.0881,0.04319 -0.48599,0.04166 -0.3247,-0.0012 -0.48222,-0.01203 -0.57008,-0.039 z m 3.58031,-0.0074 c 0,-0.02647 0.009,-0.05391 0.0208,-0.06097 0.0114,-0.0071 0.153,-0.233667 0.3146,-0.503561 0.16159,-0.269894 0.31007,-0.510123 0.32994,-0.533841 0.034,-0.04051 0.23632,-0.04352 3.34143,-0.04959 2.55571,-0.005 3.31213,-0.01331 3.33546,-0.03663 0.0668,-0.06683 0.0273,-0.171783 -0.21252,-0.564912 -0.13313,-0.218195 -0.49858,-0.820713 -0.81212,-1.338928 -0.31355,-0.518215 -0.59573,-0.981261 -0.62709,-1.028991 -0.0314,-0.04773 -0.26596,-0.432673 -0.52135,-0.855427 -0.25539,-0.422754 -0.53357,-0.880221 -0.61819,-1.016594 -0.0846,-0.136372 -0.22753,-0.371088 -0.31759,-0.521591 -0.0901,-0.150503 -0.18482,-0.292707 -0.21057,-0.316009 -0.0258,-0.0233 -0.0962,-0.04861 -0.15658,-0.05624 -0.15238,-0.01926 -0.24233,0.04359 -0.37005,0.258585 -0.0568,0.0956 -0.12031,0.187963 -0.14112,0.20524 -0.0447,0.03712 -0.0686,0.0085 -0.28231,-0.337767 -0.076,-0.123207 -0.20713,-0.333474 -0.29134,-0.467259 -0.0842,-0.133786 -0.15311,-0.260403 -0.15311,-0.281371 0,-0.03943 0.19135,-0.360006 0.39911,-0.668655 0.20458,-0.303928 0.45056,-0.439509 0.80091,-0.441451 0.15389,-8.53e-4 0.23791,0.01286 0.35908,0.05859 0.25841,0.09752 0.35745,0.217115 0.83304,1.005851 0.23024,0.381843 0.48764,0.805837 0.57199,0.942209 0.0844,0.136372 0.3968,0.649628 0.69431,1.140569 0.29751,0.49094 0.85249,1.405875 1.23327,2.033187 1.3301,2.191219 1.32336,2.179709 1.3564,2.31742 0.0416,0.1735 0.0193,0.458954 -0.0478,0.610561 -0.10626,0.240212 -0.3155,0.433313 -0.5577,0.514668 -0.11174,0.03753 -0.47066,0.04105 -4.19655,0.04105 -4.01653,0 -4.07435,-6.84e-4 -4.07435,-0.04813 z"
       id="path1" /></g></svg>
