<?xml version="1.0" encoding="UTF-8" standalone="no"?>
<!-- Created with Inkscape (http://www.inkscape.org/) -->

<svg
   width="108.90896mm"
   height="108.90897mm"
   viewBox="0 0 108.90896 108.90896"
   version="1.1"
   id="svg1"
   xml:space="preserve"
   xmlns="http://www.w3.org/2000/svg"
   xmlns:svg="http://www.w3.org/2000/svg"><defs
     id="defs1" /><g
     id="layer1"
     transform="translate(-35.161204,-109.42982)"><path
       style="fill:#f0dc5c;stroke:#a06400;stroke-width:7.367;stroke-linecap:round;stroke-dasharray:none;paint-order:stroke fill markers"
       id="path2"
       d="m 140.38666,163.88431 a 50.770977,50.770977 0 0 1 -50.699184,50.77092 50.770977,50.770977 0 0 1 -50.842565,-50.62734 50.770977,50.770977 0 0 1 50.5554,-50.9141 50.770977,50.770977 0 0 1 50.985539,50.48335" /><path
       style="fill:#a06400;stroke:none;stroke-width:1.14183"
       d="m 103.3405,137.15712 c -0.2532,-12.20046 -14.987986,-18.20811 -25.377183,-15.88336 -5.263202,1.17774 -10.264674,4.18986 -13.028008,8.93484 -1.124886,1.93156 -1.423532,4.04041 -2.34298,6.00187 -0.65661,1.40074 -2.554322,1.3614 -3.305727,2.77259 -1.263254,2.37251 -0.844932,9.46001 -0.237067,12.06993 0.451297,1.93771 3.811615,3.84725 5.396716,1.98493 0.982706,-1.1546 0.52635,-3.59602 0.52635,-5.00485 0,-6.22861 -1.058854,-13.05749 3.379158,-18.12657 8.7636,-10.00976 27.803972,-8.76742 32.164861,5.13585 1.36259,4.34417 0.70912,9.39224 0.70912,13.89704 0,2.59553 0.29398,5.63053 -0.47506,8.1439 -0.46023,1.50405 -2.216823,1.86953 -2.803153,3.34093 -0.721227,1.80995 0.139372,4.08653 2.070943,4.67383 1.77746,0.54045 3.90701,-0.14858 4.60833,-1.96067 1.03475,-2.6736 -1.68435,-4.71664 -1.15342,-7.55135 0.40578,-2.16658 2.4448,-2.10364 3.29524,-3.93232 1.72359,-3.70627 1.66696,-14.0343 -3.42812,-14.49659 M 79.775974,126.11171 c -5.933457,0.93395 -9.901218,5.15785 -10.746572,11.04541 -0.314655,2.19149 0.165337,4.4582 -0.17389,6.63451 -0.438851,2.81532 -1.866951,4.08284 -1.091659,7.26253 0.659739,2.70575 2.540255,4.5558 3.776607,6.94852 2.635129,5.09976 6.012882,10.54792 12.767152,9.57681 5.750923,-0.82683 7.92795,-5.31751 10.353531,-9.87893 1.330267,-2.50159 3.178732,-4.3302 3.705276,-7.25063 0.550671,-3.05415 -0.900414,-4.76434 -1.282562,-7.55296 -0.403169,-2.94203 0.274667,-5.88031 -0.722402,-8.76095 -2.395927,-6.92209 -9.906516,-9.0756 -16.585481,-8.02431 m 16.01179,69.05044 c -1.966884,-9.53449 1.846033,-19.55581 12.084386,-22.35611 l -3.62532,-2.32363 -9.969605,-4.02067 c -0.926117,6.87739 -3.308136,14.04301 -6.967865,19.93923 -0.696289,1.12177 -2.816452,5.42815 -4.387356,5.20533 -1.746533,-0.24773 -3.535749,-4.14566 -4.354476,-5.50744 -3.766261,-6.2645 -4.65979,-12.87836 -6.94851,-19.63712 -8.490657,2.44505 -17.521662,6.70269 -20.825744,15.40758 -0.91713,2.41626 -2.479464,7.7092 -0.202801,9.77358 2.460452,2.23102 8.207825,2.17963 11.361037,2.61292 8.298601,1.14031 16.714889,2.11008 25.075087,1.53759 2.864512,-0.19617 5.986552,0.18887 8.761167,-0.63126 M 85.516046,176.73346 c 0.242742,-1.25165 1.182606,-3.51918 0.696996,-4.73771 -0.460306,-1.15501 -5.417105,-1.12007 -6.126342,-0.21586 -0.467762,0.59635 -0.243016,1.56081 -0.124939,2.23458 0.580062,3.31005 2.713984,2.71899 5.554285,2.71899 m 25.981414,-2.89172 c -2.86293,0.41014 -5.47375,1.35289 -7.85485,3.02459 -13.612426,9.55698 -4.779677,32.32138 11.78227,29.94872 2.72551,-0.39046 5.27049,-1.24423 7.55274,-2.82343 13.6721,-9.46035 5.30948,-32.55517 -11.48016,-30.14988 m 4.22953,20.71618 h -4.83375 c 0,-1.96924 0.0155,-3.68834 1.04993,-5.43797 0.9008,-1.52359 2.70454,-3.02118 2.97819,-4.83352 0.5551,-3.67619 -4.46365,-2.19508 -6.14288,-1.51078 l -1.20845,-4.22953 c 4.524,-1.74268 14.57371,-2.302 13.15133,5.43797 -0.75645,4.11632 -4.9006,6.17258 -4.99437,10.57383 m -32.627819,-5.13586 c 0.955011,-1.44809 1.831367,-2.98639 2.62108,-4.53164 0.796153,-1.55785 0.964642,-5.42524 -0.676718,-6.63802 -3.308497,-2.44459 -5.363073,1.90016 -5.372699,4.52325 -0.0046,1.10492 0.614385,2.08853 1.139673,3.02109 0.703574,1.2491 1.305638,2.57534 2.288664,3.62532 m 29.003669,7.07953 c 4.14528,-1.14289 6.05865,5.08405 2.11245,6.31795 -4.12279,1.28913 -6.05253,-5.23163 -2.11245,-6.31795 z"
       id="path1" /></g></svg>
