<?xml version="1.0" encoding="UTF-8" standalone="no"?>
<!-- Created with Inkscape (http://www.inkscape.org/) -->

<svg
   width="212.65529mm"
   height="49.418755mm"
   viewBox="0 0 212.65529 49.418755"
   version="1.1"
   id="svg1"
   xml:space="preserve"
   xmlns="http://www.w3.org/2000/svg"
   xmlns:svg="http://www.w3.org/2000/svg"><defs
     id="defs1" /><g
     id="layer1"
     transform="translate(-15.428312,-151.28421)"><g
       id="g15"><path
         style="fill:#a8ddf4"
         d="m 23.4585,184.39807 c 0.472942,-0.0587 1.246849,-0.0587 1.719791,0 0.472943,0.0587 0.08599,0.10671 -0.859895,0.10671 -0.945886,0 -1.332839,-0.048 -0.859896,-0.10671 z m 21.034376,-0.007 c 4.038203,-0.0411 10.646172,-0.0411 14.684375,0 4.038203,0.0411 0.734219,0.0747 -7.342188,0.0747 -8.076406,0 -11.380391,-0.0336 -7.342187,-0.0747 z m 158.509974,-1.78611 c 9.6e-4,-1.16417 0.0475,-1.6075 0.10337,-0.98519 0.0559,0.62231 0.0551,1.57481 -0.002,2.11666 -0.0568,0.54186 -0.10258,0.0327 -0.10162,-1.13147 z m -0.004,-8.20208 c 0.001,-1.01865 0.049,-1.40295 0.10627,-0.854 0.0573,0.54895 0.0563,1.38239 -0.002,1.85208 -0.0585,0.4697 -0.10531,0.0206 -0.10414,-0.99808 z m 11.70415,0.0547 c 0.0994,-0.26094 0.2473,-0.40778 0.32876,-0.32632 0.0815,0.0815 1.7e-4,0.29496 -0.18065,0.47443 -0.26131,0.25937 -0.2917,0.22897 -0.14811,-0.14811 z m -11.70027,-8.25682 c 9.6e-4,-1.16416 0.0475,-1.6075 0.10337,-0.98519 0.0559,0.62231 0.0551,1.57481 -0.002,2.11667 -0.0568,0.54185 -0.10258,0.0327 -0.10162,-1.13148 z M 40.688814,152.37644 c -0.329108,-0.41964 -0.319749,-0.429 0.0999,-0.0999 0.440729,0.34565 0.580887,0.56292 0.363126,0.56292 -0.05494,0 -0.263302,-0.20836 -0.463021,-0.46302 z"
         id="path14" /><path
         style="fill:#68c5ed"
         d="m 176.57146,176.51967 c -1.1e-4,-4.51114 0.036,-6.39381 0.0802,-4.1837 0.0442,2.21011 0.0443,5.90105 2e-4,8.20209 -0.0441,2.30103 -0.0803,0.49276 -0.0804,-4.01839 z m 16.40278,1.85209 0.016,-2.11667 4.8948,-0.009 4.89479,-0.009 -4.81804,0.0807 -4.81804,0.0807 -0.0928,2.04472 -0.0928,2.04472 z m -0.0238,-8.0698 c 0,-1.23692 0.0456,-1.74294 0.10128,-1.12448 0.0557,0.61847 0.0557,1.6305 0,2.24896 -0.0557,0.61847 -0.10128,0.11245 -0.10128,-1.12448 z m -9.26042,-3.96875 c 0,-1.23692 0.0456,-1.74294 0.10128,-1.12448 0.0557,0.61847 0.0557,1.6305 0,2.24896 -0.0557,0.61847 -0.10128,0.11245 -0.10128,-1.12448 z M 50.578292,151.33416 c 0.254662,-0.0666 0.671381,-0.0666 0.926042,0 0.254662,0.0666 0.0463,0.121 -0.463021,0.121 -0.509323,0 -0.717682,-0.0545 -0.463021,-0.121 z"
         id="path13" /><path
         style="fill:#dd9c9a"
         d="m 65.328814,199.8354 c 0,-0.0549 0.208359,-0.2633 0.463021,-0.46302 0.419644,-0.32911 0.429002,-0.31975 0.09989,0.0999 -0.345643,0.44073 -0.562915,0.58088 -0.562915,0.36312 z m -43.614476,-3.33969 c 0,-0.3638 0.06005,-0.51263 0.133453,-0.33072 0.0734,0.1819 0.0734,0.47955 0,0.66145 -0.0734,0.1819 -0.133453,0.0331 -0.133453,-0.33073 z m 6.928693,-1.46661 c -0.08617,-0.22456 -0.08243,-0.48253 0.0083,-0.57327 0.09074,-0.0907 0.164977,0.0235 0.164977,0.25395 0,0.2304 0.148829,0.47897 0.33073,0.55237 0.259042,0.10453 0.257243,0.13798 -0.0083,0.15434 -0.186468,0.0115 -0.409537,-0.16284 -0.495707,-0.38739 z m 33.312345,-3.22404 c 0.545703,-0.0571 1.438672,-0.0571 1.984375,0 0.545703,0.0571 0.09922,0.10378 -0.992187,0.10378 -1.091407,0 -1.537891,-0.0467 -0.992188,-0.10378 z m 27.291756,-7.61247 c 3.71e-4,-2.18281 0.04135,-3.04057 0.09107,-1.90614 0.04972,1.13444 0.04941,2.92038 -6.74e-4,3.96875 -0.05009,1.04838 -0.09076,0.1202 -0.09039,-2.06261 z m 4.741369,2.24896 c 0,-0.94589 0.04802,-1.33284 0.106712,-0.8599 0.05869,0.47294 0.05869,1.24685 0,1.71979 -0.05869,0.47295 -0.106712,0.086 -0.106712,-0.85989 z m 14.022919,0 c 0,-0.94589 0.048,-1.33284 0.10671,-0.8599 0.0587,0.47294 0.0587,1.24685 0,1.71979 -0.0587,0.47295 -0.10671,0.086 -0.10671,-0.85989 z m 16.91479,-1.5053 c 0.25466,-0.0665 0.67138,-0.0665 0.92604,0 0.25466,0.0666 0.0463,0.121 -0.46302,0.121 -0.50932,0 -0.71768,-0.0545 -0.46302,-0.121 z m 2.1217,-9.7e-4 c 0.25743,-0.0671 0.61462,-0.0627 0.79375,0.01 0.17913,0.0725 -0.0315,0.12736 -0.46806,0.12197 -0.43656,-0.005 -0.58312,-0.0647 -0.32569,-0.13177 z m 19.89445,-4.51272 0.0104,-4.16747 4.56431,-0.01 4.5643,-0.01 -4.49147,0.082 -4.49147,0.082 -0.0833,4.0951 -0.0832,4.09511 z m -13.08646,2.23203 c 0,-0.0455 0.38695,-0.43249 0.85989,-0.8599 l 0.8599,-0.7771 -0.77711,0.8599 c -0.72437,0.80154 -0.94268,0.98151 -0.94268,0.7771 z m -7.87136,-1.95168 c 0.25466,-0.0665 0.67138,-0.0665 0.92604,0 0.25467,0.0666 0.0463,0.121 -0.46302,0.121 -0.50932,0 -0.71768,-0.0545 -0.46302,-0.121 z m -29.595832,-4.05095 c 0,-1.96453 0.04165,-2.7682 0.09256,-1.78593 0.05091,0.98226 0.05091,2.58961 0,3.57187 -0.05091,0.98227 -0.09256,0.1786 -0.09256,-1.78594 z m 34.424482,2.38125 c 0.26339,-0.29104 0.53842,-0.52916 0.61118,-0.52916 0.0728,0 -0.0832,0.23812 -0.3466,0.52916 -0.26339,0.29105 -0.53842,0.52917 -0.61118,0.52917 -0.0728,0 0.0832,-0.23812 0.3466,-0.52917 z m -15.45724,-2.80017 c 0.0127,-0.30822 0.0754,-0.37092 0.15985,-0.15985 0.0764,0.19099 0.067,0.4192 -0.0209,0.50712 -0.0879,0.0879 -0.15046,-0.0684 -0.13897,-0.34727 z m 21.96042,-0.26458 c 0.0127,-0.30823 0.0754,-0.37092 0.15985,-0.15986 0.0764,0.191 0.067,0.4192 -0.0209,0.50712 -0.0879,0.0879 -0.15045,-0.0683 -0.13896,-0.34726 z m -17.14313,-1.56545 c 0.002,-0.72761 0.0534,-0.99386 0.11418,-0.59168 0.0608,0.40218 0.0592,0.9975 -0.004,1.32292 -0.0628,0.32542 -0.11256,-0.004 -0.11057,-0.73124 z m 12.42646,0 c 0.003,-0.58209 0.0571,-0.78906 0.12041,-0.45994 0.0633,0.32912 0.0609,0.80537 -0.005,1.05833 -0.0662,0.25297 -0.118,-0.0163 -0.11507,-0.59839 z m 4.71667,-1.60955 c 0.0127,-0.30823 0.0754,-0.37092 0.15985,-0.15986 0.0764,0.191 0.067,0.4192 -0.0209,0.50712 -0.0879,0.0879 -0.15045,-0.0683 -0.13896,-0.34726 z m -21.96042,-0.26459 c 0.0127,-0.30822 0.0754,-0.37092 0.15985,-0.15985 0.0764,0.191 0.067,0.4192 -0.0209,0.50712 -0.0879,0.0879 -0.15046,-0.0683 -0.13897,-0.34727 z m 31.57102,-4.34357 c 0,-2.25558 0.0406,-3.17831 0.0902,-2.05052 0.0496,1.12778 0.0496,2.97325 0,4.10104 -0.0496,1.12778 -0.0902,0.20505 -0.0902,-2.05052 z m -25.24191,1.71979 c 0.34178,-0.3638 0.68094,-0.66146 0.7537,-0.66146 0.0728,0 -0.14734,0.29766 -0.48911,0.66146 -0.34178,0.3638 -0.68094,0.66146 -0.7537,0.66146 -0.0728,0 0.14734,-0.29766 0.48911,-0.66146 z m 9.10299,-0.19844 -0.50403,-0.59531 0.59531,0.50403 c 0.32743,0.27721 0.59532,0.5451 0.59532,0.59531 0,0.21173 -0.21294,0.0554 -0.6866,-0.50403 z m -30.07121,-1.432 c 0.1819,-0.0734 0.47955,-0.0734 0.66145,0 0.1819,0.0734 0.0331,0.13345 -0.33073,0.13345 -0.3638,0 -0.51263,-0.0601 -0.33072,-0.13345 z m 25.39999,-0.26458 c 0.1819,-0.0734 0.47956,-0.0734 0.66146,0 0.1819,0.0734 0.0331,0.13345 -0.33073,0.13345 -0.3638,0 -0.51263,-0.0601 -0.33073,-0.13345 z m 8.38388,-1.21384 -0.77711,-0.85989 0.8599,0.7771 c 0.47294,0.42741 0.8599,0.81437 0.8599,0.8599 0,0.20441 -0.21832,0.0244 -0.94269,-0.77711 z m -35.354838,-2.76042 c 0.190996,-0.0764 0.4192,-0.067 0.507118,0.0209 0.08792,0.0879 -0.06835,0.15045 -0.347265,0.13896 -0.308225,-0.0127 -0.370919,-0.0754 -0.159853,-0.15985 z m 3.439588,0 c 0.19099,-0.0764 0.4192,-0.067 0.50711,0.0209 0.0879,0.0879 -0.0683,0.15045 -0.34726,0.13896 -0.30823,-0.0127 -0.37092,-0.0754 -0.15985,-0.15985 z m 23.00221,-0.27524 c 0.47294,-0.0587 1.24685,-0.0587 1.71979,0 0.47294,0.0587 0.086,0.10671 -0.8599,0.10671 -0.94588,0 -1.33284,-0.048 -0.85989,-0.10671 z"
         id="path12" /><path
         style="fill:#019ee2"
         d="m 34.152077,189.68269 c 0.04851,-0.10914 0.743038,-1.29692 1.543402,-2.63952 l 1.455209,-2.44108 14.758825,-0.006 c 12.562361,-0.005 14.780473,-0.0627 14.904281,-0.38537 0.08284,-0.21588 -3.073967,-5.68597 -7.333424,-12.70728 -8.189091,-13.49894 -8.130801,-13.42593 -9.476314,-11.8679 -0.375394,0.43469 -0.801597,0.99174 -0.947118,1.23789 -0.219379,0.37108 -0.527484,0.0181 -1.803364,-2.06614 l -1.538781,-2.51369 1.203401,-1.86026 c 1.447174,-2.23711 2.4369,-2.91479 4.255411,-2.91375 1.531481,8.7e-4 2.518738,0.54454 3.412043,1.87896 2.008051,2.99963 18.521323,30.57899 18.744276,31.30544 0.596577,1.94383 -0.718579,4.36433 -2.665064,4.90497 -1.132323,0.3145 -36.651667,0.38653 -36.512783,0.074 z M 171.9559,176.52735 v -8.06211 l -3.50573,-0.0738 -3.50573,-0.0738 -0.0773,-2.05052 -0.0773,-2.05052 h 9.40384 9.40384 v 2.11666 2.11667 h -3.57188 -3.57188 v 8.06979 8.06979 h -2.24895 -2.24896 z m 16.40417,-2.12434 v -10.18646 h 7.27604 7.27604 v 1.98437 1.98438 h -5.02708 -5.02709 v 2.11666 2.11667 h 5.02709 5.02708 v 1.84625 1.84624 l -4.96094,0.072 -4.96094,0.072 -0.0768,2.18281 -0.0769,2.18281 h 5.03779 5.03778 v 1.98438 1.98437 h -7.27604 -7.27604 z m 19.80669,9.45885 c 0.29048,-0.40018 1.96276,-2.69214 3.71618,-5.09323 1.75342,-2.40109 3.19074,-4.43714 3.19404,-4.52455 0.003,-0.0874 -1.54181,-2.32401 -3.43358,-4.97023 -1.89177,-2.64622 -3.43958,-4.86665 -3.43958,-4.9343 0,-0.0677 1.12618,-0.123 2.50263,-0.123 h 2.50263 l 2.32601,3.29513 c 1.27931,1.81232 2.38555,3.29566 2.45831,3.29632 0.0728,6.5e-4 1.14432,-1.47892 2.38125,-3.28794 l 2.24896,-3.28912 2.46301,-0.007 c 1.90209,-0.006 2.41746,0.0681 2.26299,0.32354 -0.11001,0.1819 -1.61684,2.28579 -3.34852,4.67532 -1.73168,2.38953 -3.20337,4.48756 -3.27042,4.66229 -0.067,0.17473 1.28617,2.26779 3.00714,4.65124 1.72098,2.38345 3.40282,4.7205 3.73742,5.19344 l 0.60837,0.85989 h -2.64758 -2.64758 l -2.04877,-2.97656 c -1.12682,-1.63711 -2.25115,-3.24259 -2.4985,-3.56775 -0.44687,-0.58742 -0.46517,-0.56849 -2.87708,2.97657 l -2.42735,3.56774 h -2.64906 -2.64906 z"
         id="path11" /><path
         style="fill:#c75c59"
         d="m 22.96173,199.47228 c -0.329108,-0.41965 -0.319749,-0.42901 0.0999,-0.0999 0.440729,0.34565 0.580887,0.56292 0.363126,0.56292 -0.05494,0 -0.263302,-0.20836 -0.463021,-0.46302 z M 97.541836,184.6563 c 1.928151,-0.0452 5.083304,-0.0452 7.011454,0 1.92815,0.0452 0.35058,0.0822 -3.50573,0.0822 -3.856297,0 -5.433875,-0.037 -3.505724,-0.0822 z M 156.188,180.48842 c 3.3e-4,-2.32833 0.0408,-3.24541 0.0899,-2.03796 0.0491,1.20746 0.0489,3.11246 -6.1e-4,4.23334 -0.0495,1.12087 -0.0897,0.13296 -0.0893,-2.19538 z m 4.51112,-6.08541 c 8e-5,-5.67532 0.0351,-7.95939 0.0779,-5.07571 0.0427,2.88367 0.0427,7.52711 -1.4e-4,10.31875 -0.0428,2.79164 -0.0778,0.43227 -0.0777,-5.24304 z m -42.61107,7.47448 -0.50403,-0.59532 0.59531,0.50403 c 0.55945,0.47366 0.71577,0.6866 0.50403,0.6866 -0.0502,0 -0.3181,-0.26789 -0.59531,-0.59531 z m -28.083202,-1.71122 c 0.402184,-0.0608 0.997496,-0.0592 1.322917,0.004 0.325421,0.0628 -0.0036,0.11256 -0.731242,0.11058 -0.727604,-0.002 -0.993858,-0.0534 -0.591675,-0.11419 z m 10.969532,-0.005 4.55703,-0.0823 0.0842,-3.83055 0.0842,-3.83056 -0.011,3.90292 -0.011,3.90292 -4.63021,0.01 -4.63021,0.01 z m 9.93255,0.005 c 0.40219,-0.0608 0.9975,-0.0592 1.32292,0.004 0.32542,0.0628 -0.004,0.11256 -0.73124,0.11058 -0.72761,-0.002 -0.99386,-0.0534 -0.59168,-0.11419 z m 4.47971,-4.96951 c 0.005,-0.43657 0.0647,-0.58313 0.13178,-0.3257 0.0671,0.25743 0.0627,0.61462 -0.01,0.79375 -0.0725,0.17913 -0.12736,-0.0315 -0.12197,-0.46805 z m 21.98451,-0.79375 c 0.002,-0.72761 0.0534,-0.99386 0.11419,-0.59168 0.0608,0.40218 0.0592,0.9975 -0.004,1.32292 -0.0628,0.32542 -0.11256,-0.004 -0.11058,-0.73124 z m -21.98451,-0.79375 c 0.005,-0.43657 0.0647,-0.58313 0.13178,-0.3257 0.0671,0.25743 0.0627,0.61462 -0.01,0.79375 -0.0725,0.17913 -0.12736,-0.0315 -0.12197,-0.46805 z m -19.059799,-0.92605 c 0,-0.3638 0.06005,-0.51263 0.133452,-0.33073 0.0734,0.18191 0.0734,0.47956 0,0.66146 -0.0734,0.1819 -0.133452,0.0331 -0.133452,-0.33073 z m 59.860549,-4.49791 c 0,-2.25558 0.0406,-3.17831 0.0902,-2.05052 0.0496,1.12778 0.0496,2.97325 0,4.10104 -0.0496,1.12778 -0.0902,0.20505 -0.0902,-2.05052 z m -30.84777,-0.18074 c 0.191,-0.0764 0.4192,-0.067 0.50712,0.0209 0.0879,0.0879 -0.0683,0.15046 -0.34727,0.13897 -0.30822,-0.0127 -0.37092,-0.0754 -0.15985,-0.15985 z m 1.85208,0 c 0.191,-0.0764 0.4192,-0.067 0.50712,0.0209 0.0879,0.0879 -0.0683,0.15046 -0.34726,0.13897 -0.30823,-0.0127 -0.37092,-0.0754 -0.15986,-0.15985 z m -9.07851,-1.14218 c 0.26339,-0.29104 0.53842,-0.52917 0.61118,-0.52917 0.0728,0 -0.0832,0.23813 -0.3466,0.52917 -0.26339,0.29104 -0.53842,0.52917 -0.61118,0.52917 -0.0728,0 0.0832,-0.23813 0.3466,-0.52917 z m -10.47107,-0.46302 -0.64143,-0.7276 0.7276,0.64143 c 0.68006,0.59951 0.84894,0.81377 0.64144,0.81377 -0.0474,0 -0.37482,-0.32742 -0.72761,-0.7276 z m -7.32216,-2.37232 c 0.40018,-0.0606 1.05503,-0.0606 1.45521,0 0.40018,0.0606 0.0728,0.11022 -0.72761,0.11022 -0.80036,0 -1.127781,-0.0496 -0.7276,-0.11022 z M 37.618744,151.33319 c 0.257431,-0.0671 0.614619,-0.0627 0.79375,0.01 0.179132,0.0725 -0.03149,0.12737 -0.468056,0.12197 -0.436563,-0.005 -0.583125,-0.0647 -0.325694,-0.13177 z"
         id="path10" /><path
         style="fill:#ad0d07"
         d="m 24.676008,200.44 c -1.803828,-0.52256 -3.095658,-2.97631 -2.57735,-4.89552 0.22167,-0.82081 17.808242,-29.96683 18.097549,-29.99286 0.160505,-0.0144 2.737028,4.20526 2.861191,4.68591 0.04723,0.18285 -3.2089,5.75178 -7.235848,12.37541 -4.33652,7.13282 -7.260592,12.20228 -7.171785,12.4337 0.219314,0.57153 31.326475,0.59274 31.545674,0.0215 0.07793,-0.20308 -0.218344,-0.94722 -0.658379,-1.65365 l -0.800064,-1.28442 2.92731,-0.0751 c 1.736389,-0.0445 3.061,0.0359 3.255924,0.19765 0.180737,0.15 0.719633,1.0431 1.197547,1.98466 0.732688,1.44352 0.841221,1.88524 0.692193,2.81721 -0.235437,1.47234 -1.060197,2.57053 -2.381022,3.17037 -1.026489,0.46618 -2.096592,0.49156 -20.002218,0.47447 -10.549222,-0.0101 -19.286203,-0.1248 -19.750722,-0.25937 z m 64.72989,-16.24741 v -3.83646 h 1.190625 1.190625 v -4.08802 c 0,-2.24841 0.133732,-4.71896 0.297182,-5.4901 0.582405,-2.74775 1.988053,-4.61206 4.360832,-5.78377 1.141013,-0.56345 1.657146,-0.63989 4.337818,-0.64247 3.66297,-0.003 5.05926,0.43703 6.92946,2.18638 2.03494,1.90345 2.39711,3.18668 2.53708,8.98933 l 0.11648,4.82865 h 1.16162 1.16161 v 3.83646 3.83646 h -2.23633 -2.23633 l -0.0788,-1.65365 -0.0788,-1.65364 h -7.01146 -7.011462 l -0.07877,1.65364 -0.07877,1.65365 h -2.236333 -2.236333 z m 16.353562,-7.14375 c 0.13616,-5.29196 -0.25297,-6.77096 -2.15161,-8.17776 -1.03322,-0.76556 -3.893632,-0.77742 -5.165153,-0.0214 -1.647133,0.97934 -2.004004,2.11016 -2.111003,6.68913 -0.052,2.22543 -0.02689,4.22255 0.0558,4.43805 0.126281,0.32908 0.882091,0.38022 4.720316,0.3194 l 4.56996,-0.0724 z m 17.04483,7.395 c -1.82582,-0.49156 -2.76884,-0.99575 -4.08296,-2.18297 -2.20715,-1.99403 -3.14814,-4.34278 -3.14814,-7.85786 0,-5.45704 2.85811,-9.11617 7.97824,-10.21424 1.87455,-0.40202 5.86018,-0.15751 7.46967,0.45825 2.80637,1.07366 5.07867,3.52935 5.90913,6.38602 0.64973,2.23502 0.41851,6.09458 -0.48206,8.04651 -1.29155,2.79935 -3.76502,4.78148 -6.85594,5.49407 -1.64473,0.37917 -5.14615,0.31223 -6.78794,-0.12978 z m 6.69376,-4.29139 c 1.90478,-0.97649 2.98385,-2.63517 3.22323,-4.95449 0.29663,-2.87404 -0.90524,-5.34191 -3.19045,-6.55119 -1.5522,-0.82138 -4.61433,-0.82138 -6.16653,0 -2.81804,1.49123 -4.00061,4.96339 -2.84528,8.35409 0.50001,1.46745 2.28314,3.16917 3.75584,3.58435 1.44079,0.40619 4.00038,0.19412 5.22319,-0.43276 z m 12.82451,-5.74944 v -10.18646 h 2.24896 2.24896 v 3.96875 3.96875 h 4.7625 4.7625 v -3.96875 -3.96875 h 2.11667 2.11666 v 10.18646 10.18645 h -2.10994 -2.10995 l -0.0729,-4.16718 -0.0729,-4.16719 -4.69636,-0.0723 -4.69635,-0.0722 v 4.23944 4.23943 h -2.24896 -2.24896 z"
         id="path9" /><path
         style="fill:#1d1d1c"
         d="m 17.703812,189.29354 c -0.868239,-0.43975 -1.355874,-0.92542 -1.800917,-1.79366 -0.870734,-1.69872 -0.632941,-2.70325 1.466907,-6.19677 8.777974,-14.60394 17.174389,-28.20784 17.804843,-28.84747 0.656812,-0.66638 1.012836,-0.7957 2.431106,-0.88308 1.410702,-0.0869 1.796895,-0.009 2.557578,0.51612 0.674725,0.46576 3.07885,4.21194 9.735776,15.17058 4.861891,8.00364 8.957501,14.76044 9.101356,15.0151 0.242666,0.42958 0.03621,0.46302 -2.858984,0.46302 H 53.020938 L 45.88637,170.95357 c -7.528929,-12.43516 -7.766785,-12.74647 -8.863071,-11.60039 -0.261866,0.27376 -3.757605,5.90984 -7.76831,12.52463 -5.361673,8.84292 -7.219505,12.11447 -7.017638,12.3577 0.151873,0.183 1.02455,0.36554 1.95302,0.40853 l 1.678469,0.0777 -1.52082,2.51354 -1.520819,2.51354 -1.966382,0.0739 c -1.618078,0.0608 -2.177276,-0.0329 -3.157007,-0.52917 z"
         id="path8" /></g></g></svg>
